<svg width="800" height="800" viewBox="0 0 800 800" fill="none" xmlns="http://www.w3.org/2000/svg">
<path fill-rule="evenodd" clip-rule="evenodd" d="M797 0C798.657 0 800 1.34315 800 3V797C800 798.657 798.657 800 797 800H589.495C588.689 800 587.917 799.676 587.353 799.1L250.98 456V637C250.98 638.657 249.637 640 247.98 640H175.549C173.892 640 172.549 638.657 172.549 637V240L642.255 719.1C642.819 719.676 643.591 720 644.397 720H718.568C720.225 720 721.568 718.657 721.568 717V83C721.568 81.3431 720.225 80 718.568 80H487.534C486.728 80 485.956 79.6757 485.392 79.1002L412.843 5.10021C410.982 3.2019 412.327 0 414.985 0H797Z" fill="white"/>
<path fill-rule="evenodd" clip-rule="evenodd" d="M549.02 344V163C549.02 161.343 550.363 160 552.02 160H624.451C626.108 160 627.451 161.343 627.451 163V560L157.745 80.8998C157.181 80.3243 156.409 80 155.603 80H81.4314C79.7745 80 78.4314 81.3431 78.4314 83V717C78.4314 718.657 79.7745 720 81.4314 720H312.465C313.271 720 314.043 720.324 314.608 720.9L387.157 794.899C389.018 796.798 387.673 800 385.014 800H3.00138C1.34453 800 0.00138233 798.656 0.00137945 797L0 3.00002C-2.87852e-06 1.34316 1.34314 0 3 0H210.505C211.311 0 212.083 0.324281 212.647 0.899786L549.02 344Z" fill="white"/>
</svg>
