<svg width="2720" height="800" viewBox="0 0 2720 800" fill="none" xmlns="http://www.w3.org/2000/svg">
<rect width="2720" height="800" fill="black"/>
<path fill-rule="evenodd" clip-rule="evenodd" d="M598.5 200C599.328 200 600 200.672 600 201.5V598.5C600 599.329 599.328 600 598.5 600H494.748C494.345 600 493.959 599.838 493.677 599.55L325.49 428V518.5C325.49 519.328 324.819 520 323.99 520H287.774C286.946 520 286.274 519.328 286.274 518.5V320L521.128 559.55C521.41 559.838 521.796 560 522.199 560H559.284C560.113 560 560.784 559.329 560.784 558.5V241.5C560.784 240.672 560.113 240 559.284 240H443.767C443.364 240 442.978 239.838 442.696 239.55L406.422 202.55C405.491 201.601 406.164 200 407.493 200H598.5Z" fill="white"/>
<path fill-rule="evenodd" clip-rule="evenodd" d="M474.51 372V281.5C474.51 280.672 475.181 280 476.01 280H512.226C513.054 280 513.726 280.672 513.726 281.5V480L278.872 240.45C278.59 240.162 278.204 240 277.801 240H240.716C239.887 240 239.216 240.672 239.216 241.5V558.5C239.216 559.329 239.887 560 240.716 560H356.233C356.636 560 357.022 560.162 357.304 560.45L393.578 597.45C394.509 598.399 393.836 600 392.507 600H201.501C200.672 600 200.001 599.328 200.001 598.5L200 201.5C200 200.672 200.672 200 201.5 200H305.252C305.655 200 306.041 200.162 306.323 200.45L474.51 372Z" fill="white"/>
<path d="M890 357.8V539H834V259H886.4L1007.2 440.2H1008V259H1064V539H1011.6L890.8 357.8H890ZM1350.05 514.2L1303.65 541H1178.45L1132.05 514.2V283.8L1178.45 257H1303.65L1350.05 283.8V514.2ZM1188.05 305V493H1294.05V305H1188.05ZM1417.98 397V283.8L1464.38 257H1565.58L1611.98 283.8V337H1555.98V305H1473.98V371.8H1565.58L1611.98 398.6V514.2L1565.58 541H1460.38L1413.98 514.2V461H1469.98V493H1555.98V423.8H1464.38L1417.98 397ZM1787.69 307V539H1731.69V307H1656.09V259H1863.29V307H1787.69ZM1907.44 539V259H1963.44V539H1907.44ZM2087.27 357.8V539H2031.27V259H2083.67L2204.47 440.2H2205.27V259H2261.27V539H2208.87L2088.07 357.8H2087.27ZM2429.31 441V393H2531.31V514.2L2484.91 541H2371.71L2325.31 514.2V283.8L2371.71 257H2484.91L2531.31 283.8V341H2475.31V305H2381.31V493H2475.31V441H2429.31Z" fill="white"/>
<rect x="1172" y="283" width="139" height="234" fill="white"/>
<path d="M1173 327.154V472.135C1173 474.071 1173.98 475.882 1175.61 476.93L1199.02 492.007C1201.75 493.765 1205.39 492.895 1207.03 490.089C1208.64 487.301 1207.66 483.767 1204.86 482.205L1185.32 471.39C1183.48 470.36 1182.34 468.406 1182.38 466.293L1184.84 333.814C1184.88 331.896 1185.89 330.102 1187.51 329.09L1205.94 317.529C1208.29 316.073 1209.23 313.143 1208.22 310.585C1206.92 307.336 1203.01 306.004 1199.99 307.815L1175.77 322.253C1174.05 323.283 1173 325.147 1173 327.154Z" fill="black"/>
<path d="M1198.11 370.236V455.655C1198.11 458.887 1200.72 461.498 1203.95 461.498H1204.17C1207.4 461.498 1210.01 458.887 1210.01 455.655V378.618C1210.01 376.505 1211.15 374.551 1212.99 373.521L1256 349.299C1258.61 347.825 1259.7 344.61 1258.49 341.876C1257.12 338.75 1253.41 337.454 1250.39 339.034L1201.22 365.051C1199.3 366.063 1198.11 368.052 1198.11 370.218V370.236Z" fill="black"/>
<path d="M1227.96 490.02H1230.52C1233.34 490.02 1235.62 487.729 1235.62 484.923V392.951C1235.62 391.193 1236.52 389.559 1238.01 388.618C1241.41 386.487 1245.81 388.938 1245.81 392.951V469.331C1245.81 472.083 1248.01 474.356 1250.77 474.427L1255.44 474.57C1258.31 474.658 1260.67 472.35 1260.67 469.473V373.239C1260.67 371.339 1259.63 369.598 1257.94 368.728L1254.39 366.864C1252.75 366.011 1250.8 366.1 1249.26 367.094L1225.18 382.669C1223.72 383.61 1222.85 385.226 1222.85 386.949V484.923C1222.85 487.746 1225.14 490.02 1227.95 490.02H1227.96Z" fill="black"/>
<path d="M1204.54 335.607L1249.02 308.472C1250.68 307.477 1252.72 307.371 1254.44 308.223L1281.7 321.56C1283.62 322.501 1284.83 324.419 1284.86 326.55L1286.83 465.884C1286.89 469.667 1290.6 472.33 1294.2 471.176L1294.93 470.945C1297.26 470.199 1298.84 468.033 1298.84 465.582V359.865C1298.84 356.527 1301.73 353.916 1305.05 354.253L1306.1 354.36C1308.98 354.662 1311.16 357.077 1311.16 359.972V470.43C1311.16 472.33 1310.2 474.106 1308.6 475.154L1283.83 491.332C1281.86 492.611 1279.3 492.54 1277.4 491.155L1276.44 490.444C1275.02 489.396 1274.17 487.745 1274.14 485.969L1272.09 332.712C1272.06 330.652 1270.92 328.77 1269.11 327.811L1254.97 320.299C1253.18 319.34 1251.01 319.429 1249.29 320.512L1210.47 345.179C1208.22 346.617 1205.25 346.262 1203.38 344.326C1200.88 341.734 1201.43 337.472 1204.5 335.589L1204.54 335.607Z" fill="black"/>
</svg>
