<svg width="1762" height="572" viewBox="0 0 1762 572" fill="none" xmlns="http://www.w3.org/2000/svg">
<path d="M90 243.8V425H34V145H86.4L207.2 326.2H208V145H264V425H211.6L90.8 243.8H90ZM550.047 400.2L503.647 427H378.447L332.047 400.2V169.8L378.447 143H503.647L550.047 169.8V400.2ZM388.047 191V379H494.047V191H388.047ZM617.984 283V169.8L664.384 143H765.584L811.984 169.8V223H755.984V191H673.984V257.8H765.584L811.984 284.6V400.2L765.584 427H660.384L613.984 400.2V347H669.984V379H755.984V309.8H664.384L617.984 283ZM987.694 193V425H931.694V193H856.094V145H1063.29V193H987.694ZM1107.44 425V145H1163.44V425H1107.44ZM1287.27 243.8V425H1231.27V145H1283.67L1404.47 326.2H1405.27V145H1461.27V425H1408.87L1288.07 243.8H1287.27ZM1629.31 327V279H1731.31V400.2L1684.91 427H1571.71L1525.31 400.2V169.8L1571.71 143H1684.91L1731.31 169.8V227H1675.31V191H1581.31V379H1675.31V327H1629.31Z" fill="white"/>
<path d="M373 213.154V358.135C373 360.071 373.977 361.882 375.611 362.93L399.016 378.007C401.751 379.765 405.392 378.895 407.025 376.089C408.642 373.301 407.665 369.767 404.859 368.205L385.324 357.39C383.478 356.36 382.341 354.406 382.377 352.293L384.845 219.814C384.881 217.896 385.893 216.102 387.509 215.09L405.942 203.529C408.286 202.073 409.228 199.143 408.215 196.585C406.919 193.336 403.012 192.004 399.993 193.815L375.77 208.253C374.048 209.283 373 211.147 373 213.154Z" fill="black"/>
<path d="M398.111 256.236V341.655C398.111 344.887 400.722 347.498 403.954 347.498H404.167C407.399 347.498 410.01 344.887 410.01 341.655V264.618C410.01 262.505 411.146 260.551 412.993 259.521L456.004 235.299C458.615 233.825 459.698 230.61 458.491 227.876C457.123 224.75 453.412 223.454 450.393 225.034L401.219 251.051C399.301 252.063 398.111 254.052 398.111 256.218V256.236Z" fill="black"/>
<path d="M427.963 376.02H430.52C433.344 376.02 435.617 373.729 435.617 370.923V278.951C435.617 277.193 436.523 275.559 438.014 274.618C441.406 272.487 445.811 274.938 445.811 278.951V355.331C445.811 358.083 448.013 360.356 450.765 360.427L455.436 360.57C458.313 360.658 460.674 358.35 460.674 355.473V259.239C460.674 257.339 459.627 255.598 457.94 254.728L454.388 252.864C452.754 252.011 450.801 252.1 449.256 253.094L425.175 268.669C423.719 269.61 422.849 271.226 422.849 272.949V370.923C422.849 373.746 425.139 376.02 427.945 376.02H427.963Z" fill="black"/>
<path d="M404.539 221.607L449.025 194.472C450.676 193.477 452.718 193.371 454.441 194.223L481.7 207.56C483.618 208.501 484.826 210.419 484.861 212.55L486.833 351.884C486.886 355.667 490.597 358.33 494.202 357.176L494.931 356.945C497.257 356.199 498.837 354.033 498.837 351.582V245.865C498.837 242.527 501.732 239.916 505.053 240.253L506.101 240.36C508.978 240.662 511.162 243.077 511.162 245.972V356.43C511.162 358.33 510.203 360.106 508.605 361.154L483.831 377.332C481.86 378.611 479.303 378.54 477.403 377.155L476.444 376.444C475.023 375.396 474.171 373.745 474.135 371.969L472.093 218.712C472.057 216.652 470.921 214.77 469.11 213.811L454.974 206.299C453.18 205.34 451.014 205.429 449.291 206.512L410.471 231.179C408.215 232.617 405.25 232.262 403.385 230.326C400.881 227.734 401.432 223.472 404.504 221.589L404.539 221.607Z" fill="black"/>
</svg>
