<svg width="800" height="800" viewBox="0 0 800 800" fill="none" xmlns="http://www.w3.org/2000/svg">
<rect width="800" height="800" fill="black"/>
<path fill-rule="evenodd" clip-rule="evenodd" d="M598.5 200C599.328 200 600 200.672 600 201.5V598.5C600 599.329 599.328 600 598.5 600H494.748C494.345 600 493.959 599.838 493.677 599.55L325.49 428V518.5C325.49 519.328 324.819 520 323.99 520H287.774C286.946 520 286.274 519.328 286.274 518.5V320L521.128 559.55C521.41 559.838 521.796 560 522.199 560H559.284C560.113 560 560.784 559.329 560.784 558.5V241.5C560.784 240.672 560.113 240 559.284 240H443.767C443.364 240 442.978 239.838 442.696 239.55L406.422 202.55C405.491 201.601 406.164 200 407.493 200H598.5Z" fill="white"/>
<path fill-rule="evenodd" clip-rule="evenodd" d="M474.51 372V281.5C474.51 280.672 475.181 280 476.01 280H512.226C513.054 280 513.726 280.672 513.726 281.5V480L278.872 240.45C278.59 240.162 278.204 240 277.801 240H240.716C239.887 240 239.216 240.672 239.216 241.5V558.5C239.216 559.329 239.887 560 240.716 560H356.233C356.636 560 357.022 560.162 357.304 560.45L393.578 597.45C394.509 598.399 393.836 600 392.507 600H201.501C200.672 600 200.001 599.328 200.001 598.5L200 201.5C200 200.672 200.672 200 201.5 200H305.252C305.655 200 306.041 200.162 306.323 200.45L474.51 372Z" fill="white"/>
</svg>
